#!OML:ASF X:\für Bonn\!DataBase\2005_08_10_Bjorn_Final\c3d\bjorn.ASF
:FULLY-SPECIFIED
:DEGREES
79
root 3.28526 18.8365 -0.02039 -213.592 -18.3355 177.802
lowerback 31.6302 16.9434 -4.94446
upperback 20.6379 12.6505 -8.17506
thorax 7.57395 3.25727 -9.53894
lowerneck -7.80317 -9.47955 -2.83214
upperneck 0.465084 -14.9322 24.5544
head 3.68494 -7.41179 6.95219
rclavicle -4.92986e-014 3.49861e-014
rhumerus -5.53009 0.619201 -67.1369
rradius 30.3993
rwrist 13.465
rhand -7.18152 17.8924
rfingers 7.12502
rthumb 18.6962 -11.2291
lclavicle -4.92986e-014 3.49861e-014
lhumerus 34.2224 -10.372 46.0846
lradius 40.9198
lwrist -15.4233
lhand -44.8561 -25.9905
lfingers 7.12502
lthumb -17.6452 3.22885
rfemur 22.3034 -4.66353 15.864
rtibia 33.7757
rfoot 0.448737 25.0463
rtoes 4.86971
lfemur -100.051 9.43919 -25.3484
ltibia 111.701
lfoot -16.0319 -0.279784
ltoes -21.8222
80
root 3.27055 18.8062 -0.0962899 -214.512 -17.4151 177.71
lowerback 31.1032 17.2309 -5.14955
upperback 20.7089 12.9863 -8.09957
thorax 7.84602 3.34878 -9.3827
lowerneck -7.81518 -9.1217 -2.41963
upperneck 0.854491 -14.4862 23.9563
head 3.65184 -7.16179 6.74254
rclavicle -3.81667e-014 1.33583e-013
rhumerus -3.61244 2.30057 -65.6753
rradius 30.9909
rwrist 12.4688
rhand -6.13387 17.4907
rfingers 7.12502
rthumb 19.7037 -11.5307
lclavicle -3.81667e-014 1.33583e-013
lhumerus 36.0885 -8.62304 45.083
lradius 43.2554
lwrist -15.4662
lhand -46.974 -26.5289
lfingers 7.12502
lthumb -19.6822 2.49465
rfemur 23.9212 -4.48731 15.7245
rtibia 32.9092
rfoot 1.1704 25.9372
rtoes 6.30872
lfemur -100.887 9.72764 -26.0945
ltibia 106.947
lfoot -15.7867 0.47904
ltoes -23.4431
81
root 3.25212 18.7634 -0.175694 -215.497 -16.5051 177.493
lowerback 30.6146 17.5256 -5.3677
upperback 20.7758 13.3149 -8.04576
thorax 8.10044 3.43027 -9.24554
lowerneck -7.70321 -8.71181 -1.94789
upperneck 1.30465 -13.9663 23.2707
head 3.59903 -6.87744 6.50778
rclavicle 1.03368e-013 3.18055e-014
rhumerus -1.85854 4.2734 -64.0318
rradius 31.9044
rwrist 11.1435
rhand -5.15525 17.2694
rfingers 7.12502
rthumb 20.6442 -11.6527
lclavicle 1.03368e-013 3.18055e-014
lhumerus 37.9373 -6.57438 44.3538
lradius 45.5408
lwrist -14.4369
lhand -48.4359 -27.5804
lfingers 7.12502
lthumb -21.0872 1.29294
rfemur 25.7106 -4.22911 15.4664
rtibia 31.9296
rfoot 1.8076 26.8322
rtoes 7.83496
lfemur -101.206 10.2458 -27.0425
ltibia 101.804
lfoot -15.1249 0.708689
ltoes -24.635
82
root 3.23083 18.7238 -0.253588 -216.446 -15.5419 177.256
lowerback 29.9815 17.7602 -5.60073
upperback 20.7912 13.6247 -7.99371
thorax 8.34389 3.51273 -9.07646
lowerneck -7.32019 -8.23798 -1.55883
upperneck 1.75828 -13.326 22.5596
head 3.49564 -6.54809 6.30027
rclavicle 1.43125e-014 -1.87653e-013
rhumerus -0.225172 6.78481 -62.0928
rradius 33.1066
rwrist 9.55994
rhand -4.38791 17.4837
rfingers 7.12502
rthumb 21.3814 -11.3566
lclavicle 1.43125e-014 -1.87653e-013
lhumerus 39.5579 -4.37918 43.7194
lradius 47.8914
lwrist -12.6546
lhand -49.5563 -28.462
lfingers 7.12502
lthumb -22.1632 0.287581
rfemur 27.4768 -3.89424 15.2418
rtibia 30.9218
rfoot 2.49165 27.6534
rtoes 9.76913
lfemur -101.034 10.9481 -28.0425
ltibia 96.2177
lfoot -13.7608 0.67025
ltoes -26.2605
83
root 3.20458 18.6893 -0.329236 -217.349 -14.4333 177.179
lowerback 29.1425 17.864 -5.63926
upperback 20.7367 13.9195 -7.92724
thorax 8.62068 3.63722 -8.94461
lowerneck -6.67127 -7.70395 -1.20142
upperneck 2.21322 -12.5739 21.8052
head 3.33993 -6.17764 6.1016
rclavicle 1.74931e-013 1.08139e-013
rhumerus 1.3818 9.67871 -59.867
rradius 34.4202
rwrist 7.70348
rhand -4.17803 17.6971
rfingers 7.12502
rthumb 21.583 -11.1202
lclavicle 1.74931e-013 1.08139e-013
lhumerus 40.9183 -2.42022 42.6815
lradius 50.6925
lwrist -10.2751
lhand -50.5181 -26.9571
lfingers 7.12502
lthumb -23.0863 1.67985
rfemur 29.0983 -3.65941 15.1795
rtibia 29.9833
rfoot 3.13528 28.4745
rtoes 11.3635
lfemur -100.456 11.8096 -28.8706
ltibia 90.2139
lfoot -11.8077 0.138534
ltoes -27.0809
